<?xml version="1.0" encoding="UTF-8"?>
<svg id="Layer_2" data-name="Layer 2" xmlns="http://www.w3.org/2000/svg" viewBox="0 0 1000 800">
  <defs>
    <style>
      .cls-1 {
        fill: #171d1c;
      }
    </style>
  </defs>
  <path class="cls-1" d="m575.63,161.62c-129.4,0-234.31,104.9-234.31,234.31,0,87.66,48.15,164.06,119.43,204.24-2.42-3.51-6.94-10.88-16.49-27.72-8.31-14.65-17.2-30.81-21.14-38.09-.54-.99-1.04-2.05-1.51-3.15-31.73-36.1-50.98-83.44-50.98-135.28,0-113.22,91.78-205,205-205s205,91.78,205,205-91.78,205-205,205c-10.34,0-20.5-.77-30.44-2.25-.38.6-.77,1.13-1.16,1.58-2.61,2.99-6.36,4.5-11.16,4.5-.52,0-1.03-.02-1.53-.04,4.59,4.4,11.03,12.09,7.93,22.71,11.85,1.85,23.99,2.81,36.35,2.81,129.4,0,234.31-104.9,234.31-234.31s-104.9-234.31-234.31-234.31Z"/>
  <path class="cls-1" d="m532.62,225.56s35.6-19.24,81.78,10.26c0,0,8.98-12.83,1.92-24.05,0,0-.64,7.06-12.51,0-11.87-7.06-56.45-12.51-75.69,13.47,0,0,1.28.96-3.21,10.58-4.49,9.62,5.13,22.45,5.13,38.16s7.38,33.35-14.43,52.28c0,0-11.55,1.6-24.05,10.26-12.51,8.66-18.6,16.36-18.6,16.36,0,0,24.37-6.09,42.01-2.89,17.64,3.21,40.41,5.77,51.31,24.37,0,0-13.47-15.39-45.22-17.64s-51.63,2.57-58.05,1.6c-6.41-.96-24.05,8.02-27.26,30.79-3.21,22.77,12.51,40.73,12.51,40.73,0,0-8.24-4.52-12.94-18.78,0,0-12.4,16.85-10.47,44.43,1.92,27.58,7.06,38.16,13.15,45.54,0,0-10.03-8.02-13.35-22.77,0,0-1.08,35.92,7.26,51.31,8.34,15.39,34.96,63.5,38.49,66.71,3.53,3.21,22.45,42.01,33.67,43.3,11.22,1.28,18.28-.67,24.37-12.04,6.09-11.37-6.73-16.18-10.9-22.59-4.17-6.41,1.6-9.3,7.38-10.26,5.77-.96,13.15,2.57,12.19-4.49-.96-7.06-11.87-5.45-24.69-9.62,0,0-15.07,8.66-29.83-10.9-14.75-19.56-6.73-50.99-17-75.05l-6.09-19.88,7.38,15.39s27.58-33.03,21.17-70.56c0,0,10.66,27.3-5.45,52.28,0,0,13.47,26.62,22.77,37.2,9.3,10.58,32.07,22.13,30.79,22.13s-34.96-19.24-34.96-19.24c0,0-.96,17,1.92,27.26s-5.77,35.92-5.77,35.92c0,0,47.79-6.09,89.48,19.88,0,0,10.66-24,57.56-33.38,0,0-10.82-49.07-20.2-67.11l-16.6,29.77s16.6-29.77,15.15-41.32c-1.44-11.55-10.82-46.18-10.82-46.18l9.38,18.76s21.65-46.18,19.48-89.47c0,0,67.11-3.61,85.87-80.82,0,0-20.93-20.2-36.8-36.08-15.87-15.87-43.29-17.32-51.95-26.7-8.66-9.38-16.59-12.5-21.57-10.73,0,0,8.6,1.73,1.36,28.05,0,0-2.16,5.77,11.55,5.77s27.42,42.57,35.36,44.74c7.94,2.16,35.36,5.05,35.36,5.05l-32.47,1.44s-28.14-11.19-46.9,25.43c0,0-16.6,21.47-38.24,14.98l-2.86-8.76c-.9-2.74,1.53-5.42,4.34-4.8,5.42,1.19,12.72,2.76,15.27,3.16,10.5,1.62,11.79-7.94,10.34-19.48-1.44-11.55,14.75-3.3,12.59-11.24-2.16-7.94-5.77-15.87-5.77-21.65s10.77-22.24-5.05-35.36c-15.82-13.12-50.35-21.3-78.57-13.54Z"/>
</svg>